# xmcd
#
# Track frame offsets: 
#        150
#        15133
#        37333
#        63697
#        75213
#        86965
#        114370
#        127128
#        141333
#        165583
#        181539
#
# Disc length: 2672 seconds
#
# Revision: 0
# Processed by: cddbd v1.5.2PL0 Copyright (c) Steve Scherf et al.
# Submitted via: ExactAudioCopyFreeDBPlugin 1.0
#
DISCID=8a0a6e0b
DTITLE=17 Pygmies - The Outlaw J.D. Ray
DYEAR=2009
DGENRE=Folk
TTITLE0=Ain't Gonna Work
TTITLE1=Blackwater, TN
TTITLE2=Atlas Shrugged Blues
TTITLE3=Your Smilin' Eyes
TTITLE4=Agua Dulce
TTITLE5=Let It Rain The Blues
TTITLE6=I'll See You In Heaven
TTITLE7=Captured In Amber
TTITLE8=She's Gone
TTITLE9=Half Moon Bay
TTITLE10=I Know My Train's A-Comin'
EXTD=
EXTT0=
EXTT1=
EXTT2=
EXTT3=
EXTT4=
EXTT5=
EXTT6=
EXTT7=
EXTT8=
EXTT9=
EXTT10=
PLAYORDER=
